<mxfile host="app.diagrams.net" modified="2024-02-23T10:08:10.016Z" agent="Mozilla/5.0 (Windows NT 10.0; Win64; x64) AppleWebKit/537.36 (KHTML, like Gecko) Chrome/121.0.0.0 Safari/537.36 Edg/121.0.0.0" etag="JGjELBDQbXAkkYy7txee" version="23.1.6" type="device">
  <diagram id="C5RBs43oDa-KdzZeNtuy" name="Page-1">
    <mxGraphModel dx="794" dy="814" grid="1" gridSize="10" guides="1" tooltips="1" connect="1" arrows="1" fold="1" page="1" pageScale="1" pageWidth="827" pageHeight="1169" math="0" shadow="0">
      <root>
        <mxCell id="WIyWlLk6GJQsqaUBKTNV-0" />
        <mxCell id="WIyWlLk6GJQsqaUBKTNV-1" parent="WIyWlLk6GJQsqaUBKTNV-0" />
        <mxCell id="WIyWlLk6GJQsqaUBKTNV-2" value="" style="rounded=0;html=1;jettySize=auto;orthogonalLoop=1;fontSize=11;endArrow=block;endFill=0;endSize=8;strokeWidth=1;shadow=0;labelBackgroundColor=none;edgeStyle=orthogonalEdgeStyle;exitX=0.5;exitY=1;exitDx=0;exitDy=0;" parent="WIyWlLk6GJQsqaUBKTNV-1" source="ErdOuffcqgVo_xRobMF--0" edge="1">
          <mxGeometry relative="1" as="geometry">
            <mxPoint x="220" y="110" as="sourcePoint" />
            <mxPoint x="220" y="170" as="targetPoint" />
            <Array as="points" />
          </mxGeometry>
        </mxCell>
        <mxCell id="WIyWlLk6GJQsqaUBKTNV-4" value="" style="rounded=0;html=1;jettySize=auto;orthogonalLoop=1;fontSize=11;endArrow=block;endFill=0;endSize=8;strokeWidth=1;shadow=0;labelBackgroundColor=none;edgeStyle=orthogonalEdgeStyle;exitX=0.5;exitY=1;exitDx=0;exitDy=0;" parent="WIyWlLk6GJQsqaUBKTNV-1" source="ErdOuffcqgVo_xRobMF--1" edge="1">
          <mxGeometry x="1" y="547" relative="1" as="geometry">
            <mxPoint x="-27" y="170" as="offset" />
            <mxPoint x="220" y="250" as="sourcePoint" />
            <mxPoint x="220" y="260" as="targetPoint" />
          </mxGeometry>
        </mxCell>
        <mxCell id="WIyWlLk6GJQsqaUBKTNV-8" value="Nie" style="rounded=0;html=1;jettySize=auto;orthogonalLoop=1;fontSize=11;endArrow=block;endFill=0;endSize=8;strokeWidth=1;shadow=0;labelBackgroundColor=none;edgeStyle=orthogonalEdgeStyle;" parent="WIyWlLk6GJQsqaUBKTNV-1" source="WIyWlLk6GJQsqaUBKTNV-10" edge="1">
          <mxGeometry x="0.6068" y="30" relative="1" as="geometry">
            <mxPoint x="-15" y="-3" as="offset" />
            <mxPoint x="220" y="430" as="targetPoint" />
          </mxGeometry>
        </mxCell>
        <mxCell id="WIyWlLk6GJQsqaUBKTNV-9" value="TAK" style="edgeStyle=orthogonalEdgeStyle;rounded=0;html=1;jettySize=auto;orthogonalLoop=1;fontSize=11;endArrow=block;endFill=0;endSize=8;strokeWidth=1;shadow=0;labelBackgroundColor=none;" parent="WIyWlLk6GJQsqaUBKTNV-1" source="WIyWlLk6GJQsqaUBKTNV-10" edge="1">
          <mxGeometry x="-0.7605" y="10" relative="1" as="geometry">
            <mxPoint as="offset" />
            <mxPoint x="460.0000000000002" y="390" as="targetPoint" />
            <Array as="points">
              <mxPoint x="460" y="360" />
            </Array>
          </mxGeometry>
        </mxCell>
        <mxCell id="WIyWlLk6GJQsqaUBKTNV-10" value="delta &amp;gt; 0" style="rhombus;whiteSpace=wrap;html=1;shadow=0;fontFamily=Helvetica;fontSize=12;align=center;strokeWidth=1;spacing=6;spacingTop=-4;" parent="WIyWlLk6GJQsqaUBKTNV-1" vertex="1">
          <mxGeometry x="170" y="320" width="100" height="80" as="geometry" />
        </mxCell>
        <mxCell id="ErdOuffcqgVo_xRobMF--0" value="Start" style="ellipse;whiteSpace=wrap;html=1;" parent="WIyWlLk6GJQsqaUBKTNV-1" vertex="1">
          <mxGeometry x="160" y="40" width="120" height="80" as="geometry" />
        </mxCell>
        <mxCell id="ErdOuffcqgVo_xRobMF--1" value="podaj a,b,c" style="shape=parallelogram;perimeter=parallelogramPerimeter;whiteSpace=wrap;html=1;fixedSize=1;" parent="WIyWlLk6GJQsqaUBKTNV-1" vertex="1">
          <mxGeometry x="160" y="170" width="120" height="60" as="geometry" />
        </mxCell>
        <mxCell id="ErdOuffcqgVo_xRobMF--2" value="Wypisz x1, x2" style="shape=parallelogram;perimeter=parallelogramPerimeter;whiteSpace=wrap;html=1;fixedSize=1;" parent="WIyWlLk6GJQsqaUBKTNV-1" vertex="1">
          <mxGeometry x="400" y="490" width="120" height="60" as="geometry" />
        </mxCell>
        <mxCell id="ErdOuffcqgVo_xRobMF--4" value="Wypisz x1" style="shape=parallelogram;perimeter=parallelogramPerimeter;whiteSpace=wrap;html=1;fixedSize=1;" parent="WIyWlLk6GJQsqaUBKTNV-1" vertex="1">
          <mxGeometry x="160" y="650" width="120" height="30" as="geometry" />
        </mxCell>
        <mxCell id="ErdOuffcqgVo_xRobMF--8" value="" style="endArrow=classic;html=1;rounded=0;exitX=0.5;exitY=1;exitDx=0;exitDy=0;" parent="WIyWlLk6GJQsqaUBKTNV-1" source="ErdOuffcqgVo_xRobMF--4" edge="1">
          <mxGeometry width="50" height="50" relative="1" as="geometry">
            <mxPoint x="340" y="670" as="sourcePoint" />
            <mxPoint x="220" y="720" as="targetPoint" />
          </mxGeometry>
        </mxCell>
        <mxCell id="ErdOuffcqgVo_xRobMF--9" value="Stop" style="ellipse;whiteSpace=wrap;html=1;" parent="WIyWlLk6GJQsqaUBKTNV-1" vertex="1">
          <mxGeometry x="160" y="720" width="120" height="80" as="geometry" />
        </mxCell>
        <mxCell id="ErdOuffcqgVo_xRobMF--10" value="" style="endArrow=classic;html=1;rounded=0;exitX=0.5;exitY=1;exitDx=0;exitDy=0;entryX=1;entryY=0.5;entryDx=0;entryDy=0;" parent="WIyWlLk6GJQsqaUBKTNV-1" source="ErdOuffcqgVo_xRobMF--2" target="ErdOuffcqgVo_xRobMF--9" edge="1">
          <mxGeometry width="50" height="50" relative="1" as="geometry">
            <mxPoint x="340" y="580" as="sourcePoint" />
            <mxPoint x="460" y="760" as="targetPoint" />
            <Array as="points">
              <mxPoint x="460" y="760" />
            </Array>
          </mxGeometry>
        </mxCell>
        <mxCell id="jF31l4z4Kr2qCURAPsGU-2" style="edgeStyle=orthogonalEdgeStyle;rounded=0;orthogonalLoop=1;jettySize=auto;html=1;exitX=0.5;exitY=1;exitDx=0;exitDy=0;entryX=0.5;entryY=0;entryDx=0;entryDy=0;" parent="WIyWlLk6GJQsqaUBKTNV-1" source="jF31l4z4Kr2qCURAPsGU-0" target="WIyWlLk6GJQsqaUBKTNV-10" edge="1">
          <mxGeometry relative="1" as="geometry" />
        </mxCell>
        <mxCell id="jF31l4z4Kr2qCURAPsGU-0" value="delta = (b*b) - (4*a*c)" style="rounded=0;whiteSpace=wrap;html=1;" parent="WIyWlLk6GJQsqaUBKTNV-1" vertex="1">
          <mxGeometry x="160" y="260" width="120" height="30" as="geometry" />
        </mxCell>
        <mxCell id="jF31l4z4Kr2qCURAPsGU-3" value="x1 = (-b - sqrt(delta)) /&amp;nbsp; (2*a)&lt;br&gt;x2 = (-b + sqrt(delta)) / (2*a)" style="rounded=0;whiteSpace=wrap;html=1;" parent="WIyWlLk6GJQsqaUBKTNV-1" vertex="1">
          <mxGeometry x="320" y="390" width="280" height="60" as="geometry" />
        </mxCell>
        <mxCell id="jF31l4z4Kr2qCURAPsGU-4" value="" style="endArrow=classic;html=1;rounded=0;exitX=0.5;exitY=1;exitDx=0;exitDy=0;entryX=0.5;entryY=0;entryDx=0;entryDy=0;" parent="WIyWlLk6GJQsqaUBKTNV-1" source="jF31l4z4Kr2qCURAPsGU-3" target="ErdOuffcqgVo_xRobMF--2" edge="1">
          <mxGeometry width="50" height="50" relative="1" as="geometry">
            <mxPoint x="200" y="570" as="sourcePoint" />
            <mxPoint x="250" y="520" as="targetPoint" />
          </mxGeometry>
        </mxCell>
        <mxCell id="jF31l4z4Kr2qCURAPsGU-5" value="delta == 0" style="rhombus;whiteSpace=wrap;html=1;" parent="WIyWlLk6GJQsqaUBKTNV-1" vertex="1">
          <mxGeometry x="170" y="430" width="100" height="80" as="geometry" />
        </mxCell>
        <mxCell id="jF31l4z4Kr2qCURAPsGU-6" value="" style="endArrow=classic;html=1;rounded=0;exitX=0;exitY=0.5;exitDx=0;exitDy=0;" parent="WIyWlLk6GJQsqaUBKTNV-1" source="jF31l4z4Kr2qCURAPsGU-5" edge="1">
          <mxGeometry width="50" height="50" relative="1" as="geometry">
            <mxPoint x="200" y="570" as="sourcePoint" />
            <mxPoint x="120" y="470" as="targetPoint" />
            <Array as="points">
              <mxPoint x="130" y="470" />
            </Array>
          </mxGeometry>
        </mxCell>
        <mxCell id="jF31l4z4Kr2qCURAPsGU-7" value="Wypisz brak rozwiązań" style="shape=parallelogram;perimeter=parallelogramPerimeter;whiteSpace=wrap;html=1;fixedSize=1;" parent="WIyWlLk6GJQsqaUBKTNV-1" vertex="1">
          <mxGeometry x="10" y="440" width="120" height="60" as="geometry" />
        </mxCell>
        <mxCell id="jF31l4z4Kr2qCURAPsGU-9" value="" style="endArrow=classic;html=1;rounded=0;exitX=0.413;exitY=1.02;exitDx=0;exitDy=0;exitPerimeter=0;entryX=0;entryY=0.5;entryDx=0;entryDy=0;" parent="WIyWlLk6GJQsqaUBKTNV-1" source="jF31l4z4Kr2qCURAPsGU-7" target="ErdOuffcqgVo_xRobMF--9" edge="1">
          <mxGeometry width="50" height="50" relative="1" as="geometry">
            <mxPoint x="50" y="590" as="sourcePoint" />
            <mxPoint x="60" y="760" as="targetPoint" />
            <Array as="points">
              <mxPoint x="60" y="760" />
            </Array>
          </mxGeometry>
        </mxCell>
        <mxCell id="jF31l4z4Kr2qCURAPsGU-12" value="Wiktor Nosarzewski" style="text;strokeColor=none;fillColor=none;html=1;fontSize=24;fontStyle=1;verticalAlign=middle;align=center;" parent="WIyWlLk6GJQsqaUBKTNV-1" vertex="1">
          <mxGeometry x="364" y="60" width="100" height="40" as="geometry" />
        </mxCell>
        <UserObject label="Nie" placeholders="1" name="Variable" id="jF31l4z4Kr2qCURAPsGU-13">
          <mxCell style="text;html=1;strokeColor=none;fillColor=none;align=center;verticalAlign=middle;whiteSpace=wrap;overflow=hidden;" parent="WIyWlLk6GJQsqaUBKTNV-1" vertex="1">
            <mxGeometry x="110" y="450" width="80" height="20" as="geometry" />
          </mxCell>
        </UserObject>
        <UserObject label="Tak" placeholders="1" name="Variable" id="jF31l4z4Kr2qCURAPsGU-14">
          <mxCell style="text;html=1;strokeColor=none;fillColor=none;align=center;verticalAlign=middle;whiteSpace=wrap;overflow=hidden;" parent="WIyWlLk6GJQsqaUBKTNV-1" vertex="1">
            <mxGeometry x="200" y="530" width="80" height="30" as="geometry" />
          </mxCell>
        </UserObject>
        <mxCell id="jF31l4z4Kr2qCURAPsGU-17" value="" style="endArrow=classic;html=1;rounded=0;exitX=0.5;exitY=1;exitDx=0;exitDy=0;entryX=0.5;entryY=0;entryDx=0;entryDy=0;" parent="WIyWlLk6GJQsqaUBKTNV-1" source="jF31l4z4Kr2qCURAPsGU-5" target="jF31l4z4Kr2qCURAPsGU-18" edge="1">
          <mxGeometry width="50" height="50" relative="1" as="geometry">
            <mxPoint x="200" y="440" as="sourcePoint" />
            <mxPoint x="220" y="550" as="targetPoint" />
          </mxGeometry>
        </mxCell>
        <mxCell id="jF31l4z4Kr2qCURAPsGU-18" value="x1 = -b/(2*a)" style="rounded=0;whiteSpace=wrap;html=1;" parent="WIyWlLk6GJQsqaUBKTNV-1" vertex="1">
          <mxGeometry x="160" y="560" width="120" height="30" as="geometry" />
        </mxCell>
        <mxCell id="jF31l4z4Kr2qCURAPsGU-20" value="" style="endArrow=classic;html=1;rounded=0;exitX=0.5;exitY=1;exitDx=0;exitDy=0;entryX=0.5;entryY=0;entryDx=0;entryDy=0;" parent="WIyWlLk6GJQsqaUBKTNV-1" source="jF31l4z4Kr2qCURAPsGU-18" target="ErdOuffcqgVo_xRobMF--4" edge="1">
          <mxGeometry width="50" height="50" relative="1" as="geometry">
            <mxPoint x="200" y="440" as="sourcePoint" />
            <mxPoint x="250" y="390" as="targetPoint" />
          </mxGeometry>
        </mxCell>
      </root>
    </mxGraphModel>
  </diagram>
</mxfile>
